<svg xmlns="http://www.w3.org/2000/svg" width="380" height="287" viewBox="0 0 380 287" fill="none">
<path d="M12.0475 79.3453C12.5632 76.5441 12.6604 72.3579 13.5244 69.4106C15.1516 63.8606 17.9696 56.3008 20.2478 50.7358C20.4736 50.1843 23.3724 48.5385 24.3265 47.4477L24.1581 47.0684C23.4844 46.8546 23.0035 46.7863 22.6377 46.3031C23.41 44.9551 25.5764 44.3329 26.4294 43.1444C28.6867 40.2251 30.4974 36.5961 33.2088 33.9235C46.4144 20.919 63.9981 9.66547 84.3689 5.04268C89.0566 3.97888 94.1185 2.07196 98.8179 1.71609C104.389 1.29429 110.572 0.331279 116.108 0.17436C125.779 -0.0998311 135.593 0.0305793 145.277 0.0336842L188.749 0.0377441L236.646 0.031534C258.727 0.0286679 281.145 -0.771932 301.573 6.70717C302.806 7.1581 303.009 7.72941 303.941 8.13401C304.755 7.64009 305.169 7.42632 306.051 7.01408C308.479 6.96034 306.757 9.42185 309.051 10.5783C310.264 10.3552 309.814 10.1594 310.949 9.09965C310.038 8.91718 317.364 13.0585 318.139 13.4339C341.877 24.9349 359.164 44.0258 365.496 65.6964C366.687 69.7677 366.61 74.4652 367.808 77.7539L367.93 78.0847C373.022 80.2588 378.701 82.4421 379.532 87.7174C380.116 91.4247 379.943 95.5395 379.967 99.2917L380 119.727L379.988 149.127C379.973 157.926 380.182 165.123 379.032 173.89C375.906 176.319 372.924 177.659 369.181 179.323C369.259 199.838 369.461 220.101 357.94 239.096C357.072 240.525 353.372 242.815 353.294 243.742L354.477 244.537L354.525 244.979C353.721 245.736 351.727 247.028 351.194 247.695C346.641 253.341 340.223 259.207 334.187 263.862C330.748 266.513 324.697 270.69 320.826 272.527C315.544 275.032 309.308 277.223 303.953 279.793C302.1 280.633 298.912 281.159 296.856 281.775C290.575 283.655 284.461 285.033 277.769 285.541C274.465 285.795 270.955 286.559 267.57 286.437C267.46 286.437 267.35 286.44 267.237 286.44C261.829 287.244 249.806 286.946 245.024 286.946L201.66 286.9C199.723 287.039 195.263 286.929 193.159 286.924L177.281 286.948C160.206 286.774 143.075 287.034 125.996 286.948C121.52 286.924 117.196 287.001 112.719 286.736C107.172 285.85 101.602 285.694 96.0692 284.815C68.3628 280.425 45.0077 266.365 28.8863 248.115C27.166 245.968 25.9271 243.362 24.347 241.191C10.008 221.479 11.0562 201.089 10.8181 178.968C9.5268 178.824 8.60762 178.714 7.49744 178.303C5.20588 177.455 0.88138 173.436 0.50715 171.476C-0.184103 167.855 0.0328058 161.889 0.0304221 158.102L0.022375 135.583L0.0238662 106.524C0.025356 101.135 -0.0664143 95.6238 0.177908 90.2501C0.282787 87.9419 0.592063 86.2533 2.00287 84.2826C4.6347 80.6059 7.46377 80.3634 12.0475 79.3453Z" fill="#E8E8E8" style="fill:#ececec;fill-opacity:1;"/>
<path d="M29.6742 142.492L29.421 111.846C29.4032 94.3884 32.2496 79.7092 40.8637 64.539C45.1839 56.9306 46.662 53.6743 53.1713 47.2763C62.1841 38.4169 71.4698 30.2566 83.378 25.4296C91.2336 22.7972 98.1208 20.4553 106.327 19.5893C124.918 17.6276 143.046 18.1394 161.721 18.1424L250.693 18.1266C258.172 18.1323 269.824 18.653 277.347 20.0637C288.928 22.7509 302.973 27.9595 312.77 34.9575C324.422 43.2819 336.446 58.2832 342.347 71.2737C344.037 74.9962 347.988 87.8825 348.46 91.6892C349.933 103.514 349.841 116.245 349.823 128.136C350.592 137.019 349.757 146.409 349.769 155.375C349.799 176.984 351.099 197.609 341.107 217.515C336.357 226.977 330.538 235.249 322.899 242.686C307.925 256.996 288.5 265.748 267.862 267.488C261.39 268.061 251.815 267.773 245.076 267.764L206.506 267.758L151.115 267.761C132.552 267.761 113.64 268.939 95.4418 264.531C83.1055 261.541 72.6852 255.028 62.5908 247.541C55.8509 242.541 54.5954 241.343 49.3716 234.352C40.2551 222.151 32.5245 208.571 30.7768 193.176C29.6478 180.101 29.2999 166.187 29.6205 153.071C29.6677 151.145 29.4777 143.733 29.6742 142.492Z" fill="red" style="fill:#222222;fill-opacity:1;"/>
<path d="M29.6742 142.492L29.421 111.846C29.4032 94.3884 32.2496 79.7092 40.8637 64.539C45.1839 56.9306 46.662 53.6743 53.1713 47.2763C62.1841 38.4169 71.4698 30.2566 83.378 25.4296C91.2336 22.7972 98.1208 20.4553 106.327 19.5893C124.918 17.6276 143.046 18.1394 161.721 18.1424L250.693 18.1266C258.171 18.1323 269.824 18.653 277.347 20.0637C288.928 22.7509 302.973 27.9595 312.77 34.9575C324.422 43.2819 336.446 58.2832 342.347 71.2737C344.037 74.9962 347.988 87.8825 348.46 91.6892C349.933 103.514 349.841 116.245 349.823 128.136C349.591 132.801 349.775 137.714 349.737 142.406C346.147 142.546 334.768 142.153 332.601 142.619C332.064 143.397 332.084 143.742 331.948 144.666L331.927 115.881C331.933 104.065 332.426 97.192 328.566 85.9001C324.336 73.5121 319.859 65.8435 310.519 56.6602C301.135 47.2899 289.302 40.7532 276.373 37.7997C268.096 35.9208 256.678 36.2631 248.146 36.2634L216.633 36.2676C184.901 36.2756 152.908 36.2871 121.434 36.2726C99.7014 36.2628 80.8584 43.1979 66.2676 59.2421C64.2219 61.4917 61.9065 63.5995 60.2063 66.1834C55.5585 72.9873 50.8948 84.0449 49.0334 91.9823C46.7116 101.882 46.9773 114.013 46.9773 124.105L46.9704 157.375C46.9598 162.109 47.1403 168.274 46.9274 172.897C45.7058 168.4 47.5672 148.966 46.1413 145.331L46.0513 146.006L45.7355 145.919C45.3866 144.808 45.0544 143.692 44.7391 142.572C39.9972 142.397 34.4839 142.52 29.6742 142.492Z" fill="red" style="fill:red;fill:color(display-p3 0.7333 0.7333 0.7333);fill-opacity:1;"/>
<path d="M349.823 128.136C350.592 137.019 349.758 146.41 349.769 155.375C349.799 176.984 351.099 197.61 341.107 217.516C336.357 226.977 330.538 235.249 322.899 242.686C307.925 256.997 288.5 265.748 267.862 267.488C261.39 268.061 251.816 267.773 245.077 267.764L206.507 267.758L151.116 267.761C132.552 267.761 113.64 268.939 95.442 264.531C83.1057 261.542 72.6853 255.028 62.591 247.541C55.851 242.542 54.5956 241.343 49.3717 234.352C40.2553 222.152 32.5247 208.571 30.777 193.176C29.648 180.101 29.3 166.187 29.6207 153.071C29.6679 151.146 29.4779 143.733 29.6744 142.492C34.4841 142.52 39.9973 142.398 44.7393 142.572C45.0546 143.692 45.3868 144.808 45.7356 145.919L46.0515 146.006L46.1415 145.331C47.5673 148.967 45.7059 168.4 46.9276 172.898C47.0802 177.732 47.4584 188.722 48.2988 193.065C49.9898 201.8 56.3011 214.285 61.7704 221.387C63.9385 224.041 66.065 227.683 68.6838 229.893C79.2371 238.803 92.7713 247.188 106.599 249.005C120.213 250.798 133.539 250.718 147.055 250.715L189.365 250.697L233.294 250.712C263.325 250.712 291.264 251.427 313.168 227.04C316.914 222.868 318.58 219.218 323.386 215.611C322.522 215.121 323.992 212.386 323.888 211.379C323.072 212.173 324.722 210.604 323.888 211.379C324.933 210.353 325.942 209.384 326.411 207.984C328.629 201.372 330.954 194.12 331.592 187.188C332.102 181.607 331.933 175.886 331.924 170.354C331.883 161.791 331.889 153.229 331.948 144.666C332.085 143.742 332.064 143.397 332.601 142.619C334.768 142.153 346.148 142.546 349.737 142.406C349.775 137.714 349.591 132.802 349.823 128.136Z" fill="#BBBBBB" style="fill:#BBBBBB;fill:color(display-p3 0.7333 0.7333 0.7333);fill-opacity:1;"/>
</svg>
