<svg xmlns="http://www.w3.org/2000/svg" viewBox="0 0 64 24">
  <!-- bot-pixel-soft -->
  <g fill="#6B8AF7"><rect x="12" y="10" width="2" height="2"/><rect x="14" y="10" width="2" height="2"/><rect x="40" y="10" width="2" height="2"/><rect x="42" y="10" width="2" height="2"/><rect x="10" y="12" width="2" height="2"/><rect x="12" y="12" width="2" height="2"/><rect x="14" y="12" width="2" height="2"/><rect x="16" y="12" width="2" height="2"/><rect x="38" y="12" width="2" height="2"/><rect x="40" y="12" width="2" height="2"/><rect x="42" y="12" width="2" height="2"/><rect x="44" y="12" width="2" height="2"/><rect x="12" y="14" width="2" height="2"/><rect x="14" y="14" width="2" height="2"/><rect x="40" y="14" width="2" height="2"/><rect x="42" y="14" width="2" height="2"/></g>
</svg>
