<svg xmlns="http://www.w3.org/2000/svg" viewBox="0 0 64 24">
  <!-- bot-pixel-scan -->
  <g fill="#4DD0E1"><rect x="4" y="6" width="2" height="2"/><rect x="6" y="6" width="2" height="2"/><rect x="8" y="6" width="2" height="2"/><rect x="10" y="6" width="2" height="2"/><rect x="12" y="6" width="2" height="2"/><rect x="14" y="6" width="2" height="2"/><rect x="16" y="6" width="2" height="2"/><rect x="18" y="6" width="2" height="2"/><rect x="20" y="6" width="2" height="2"/><rect x="22" y="6" width="2" height="2"/><rect x="24" y="6" width="2" height="2"/><rect x="26" y="6" width="2" height="2"/><rect x="36" y="6" width="2" height="2"/><rect x="38" y="6" width="2" height="2"/><rect x="40" y="6" width="2" height="2"/><rect x="42" y="6" width="2" height="2"/><rect x="44" y="6" width="2" height="2"/><rect x="46" y="6" width="2" height="2"/><rect x="48" y="6" width="2" height="2"/><rect x="50" y="6" width="2" height="2"/><rect x="52" y="6" width="2" height="2"/><rect x="54" y="6" width="2" height="2"/><rect x="56" y="6" width="2" height="2"/><rect x="58" y="6" width="2" height="2"/><rect x="4" y="8" width="2" height="2"/><rect x="6" y="8" width="2" height="2"/><rect x="56" y="8" width="2" height="2"/><rect x="58" y="8" width="2" height="2"/><rect x="4" y="10" width="2" height="2"/><rect x="6" y="10" width="2" height="2"/><rect x="8" y="10" width="2" height="2"/><rect x="10" y="10" width="2" height="2"/><rect x="12" y="10" width="2" height="2"/><rect x="14" y="10" width="2" height="2"/><rect x="16" y="10" width="2" height="2"/><rect x="18" y="10" width="2" height="2"/><rect x="20" y="10" width="2" height="2"/><rect x="22" y="10" width="2" height="2"/><rect x="24" y="10" width="2" height="2"/><rect x="26" y="10" width="2" height="2"/><rect x="36" y="10" width="2" height="2"/><rect x="38" y="10" width="2" height="2"/><rect x="40" y="10" width="2" height="2"/><rect x="42" y="10" width="2" height="2"/><rect x="44" y="10" width="2" height="2"/><rect x="46" y="10" width="2" height="2"/><rect x="48" y="10" width="2" height="2"/><rect x="50" y="10" width="2" height="2"/><rect x="52" y="10" width="2" height="2"/><rect x="54" y="10" width="2" height="2"/><rect x="56" y="10" width="2" height="2"/><rect x="58" y="10" width="2" height="2"/></g>
  <g fill="#E0F7FA"><rect x="8" y="8" width="2" height="2"/><rect x="10" y="8" width="2" height="2"/><rect x="12" y="8" width="2" height="2"/><rect x="14" y="8" width="2" height="2"/><rect x="16" y="8" width="2" height="2"/><rect x="18" y="8" width="2" height="2"/><rect x="20" y="8" width="2" height="2"/><rect x="22" y="8" width="2" height="2"/><rect x="24" y="8" width="2" height="2"/><rect x="26" y="8" width="2" height="2"/><rect x="36" y="8" width="2" height="2"/><rect x="38" y="8" width="2" height="2"/><rect x="40" y="8" width="2" height="2"/><rect x="42" y="8" width="2" height="2"/><rect x="44" y="8" width="2" height="2"/><rect x="46" y="8" width="2" height="2"/><rect x="48" y="8" width="2" height="2"/><rect x="50" y="8" width="2" height="2"/><rect x="52" y="8" width="2" height="2"/><rect x="54" y="8" width="2" height="2"/></g>
</svg>
