<svg xmlns="http://www.w3.org/2000/svg" viewBox="0 0 64 24">
  <!-- bot-pixel-diamond -->
  <g fill="#FFB84D"><rect x="12" y="4" width="2" height="2"/><rect x="14" y="4" width="2" height="2"/><rect x="40" y="4" width="2" height="2"/><rect x="42" y="4" width="2" height="2"/><rect x="10" y="6" width="2" height="2"/><rect x="12" y="6" width="2" height="2"/><rect x="14" y="6" width="2" height="2"/><rect x="16" y="6" width="2" height="2"/><rect x="38" y="6" width="2" height="2"/><rect x="40" y="6" width="2" height="2"/><rect x="42" y="6" width="2" height="2"/><rect x="44" y="6" width="2" height="2"/><rect x="8" y="8" width="2" height="2"/><rect x="10" y="8" width="2" height="2"/><rect x="12" y="8" width="2" height="2"/><rect x="14" y="8" width="2" height="2"/><rect x="16" y="8" width="2" height="2"/><rect x="18" y="8" width="2" height="2"/><rect x="36" y="8" width="2" height="2"/><rect x="38" y="8" width="2" height="2"/><rect x="40" y="8" width="2" height="2"/><rect x="42" y="8" width="2" height="2"/><rect x="44" y="8" width="2" height="2"/><rect x="46" y="8" width="2" height="2"/><rect x="10" y="10" width="2" height="2"/><rect x="12" y="10" width="2" height="2"/><rect x="14" y="10" width="2" height="2"/><rect x="16" y="10" width="2" height="2"/><rect x="38" y="10" width="2" height="2"/><rect x="40" y="10" width="2" height="2"/><rect x="42" y="10" width="2" height="2"/><rect x="44" y="10" width="2" height="2"/><rect x="12" y="12" width="2" height="2"/><rect x="14" y="12" width="2" height="2"/><rect x="40" y="12" width="2" height="2"/><rect x="42" y="12" width="2" height="2"/></g>
</svg>
