<svg xmlns="http://www.w3.org/2000/svg" viewBox="0 0 64 24">
  <!-- bot-pixel-arc -->
  <g fill="#F5E8C8"><rect x="8" y="6" width="2" height="2"/><rect x="10" y="6" width="2" height="2"/><rect x="40" y="6" width="2" height="2"/><rect x="42" y="6" width="2" height="2"/><rect x="8" y="8" width="2" height="2"/><rect x="10" y="8" width="2" height="2"/><rect x="40" y="8" width="2" height="2"/><rect x="42" y="8" width="2" height="2"/><rect x="8" y="10" width="2" height="2"/><rect x="10" y="10" width="2" height="2"/><rect x="12" y="10" width="2" height="2"/><rect x="14" y="10" width="2" height="2"/><rect x="36" y="10" width="2" height="2"/><rect x="38" y="10" width="2" height="2"/><rect x="40" y="10" width="2" height="2"/><rect x="42" y="10" width="2" height="2"/><rect x="12" y="12" width="2" height="2"/><rect x="14" y="12" width="2" height="2"/><rect x="16" y="12" width="2" height="2"/><rect x="18" y="12" width="2" height="2"/><rect x="20" y="12" width="2" height="2"/><rect x="22" y="12" width="2" height="2"/><rect x="32" y="12" width="2" height="2"/><rect x="34" y="12" width="2" height="2"/><rect x="36" y="12" width="2" height="2"/><rect x="38" y="12" width="2" height="2"/><rect x="40" y="12" width="2" height="2"/><rect x="42" y="12" width="2" height="2"/><rect x="16" y="14" width="2" height="2"/><rect x="18" y="14" width="2" height="2"/><rect x="20" y="14" width="2" height="2"/><rect x="22" y="14" width="2" height="2"/><rect x="32" y="14" width="2" height="2"/><rect x="34" y="14" width="2" height="2"/><rect x="36" y="14" width="2" height="2"/><rect x="38" y="14" width="2" height="2"/></g>
</svg>
