<svg xmlns="http://www.w3.org/2000/svg" viewBox="0 0 64 24" fill="#FFB84D">
  <!-- bot-thinking -->
  <rect x="28" y="0" width="4" height="4"/>
  <rect x="60" y="0" width="4" height="4"/>
  <rect x="8" y="4" width="4" height="4"/>
  <rect x="12" y="4" width="4" height="4"/>
  <rect x="16" y="4" width="4" height="4"/>
  <rect x="20" y="4" width="4" height="4"/>
  <rect x="36" y="4" width="4" height="4"/>
  <rect x="40" y="4" width="4" height="4"/>
  <rect x="44" y="4" width="4" height="4"/>
  <rect x="48" y="4" width="4" height="4"/>
  <rect x="52" y="4" width="4" height="4"/>
  <rect x="8" y="8" width="4" height="4"/>
  <rect x="12" y="8" width="4" height="4"/>
  <rect x="16" y="8" width="4" height="4"/>
  <rect x="20" y="8" width="4" height="4"/>
  <rect x="36" y="8" width="4" height="4"/>
  <rect x="40" y="8" width="4" height="4"/>
  <rect x="44" y="8" width="4" height="4"/>
  <rect x="48" y="8" width="4" height="4"/>
  <rect x="52" y="8" width="4" height="4"/>
  <rect x="8" y="12" width="4" height="4"/>
  <rect x="12" y="12" width="4" height="4"/>
  <rect x="16" y="12" width="4" height="4"/>
  <rect x="20" y="12" width="4" height="4"/>
  <rect x="36" y="12" width="4" height="4"/>
  <rect x="40" y="12" width="4" height="4"/>
  <rect x="44" y="12" width="4" height="4"/>
  <rect x="48" y="12" width="4" height="4"/>
  <rect x="52" y="12" width="4" height="4"/>

</svg>
